<svg xmlns="http://www.w3.org/2000/svg" viewBox="52.985 27.887 113.712 117.283">
	<path
		d="M 166.411 90.818 C 166.371 89.008 166.341 87.188 166.311 85.378 L 166.281 83.348 L 166.311 83.348 L 166.151 73.938 C 166.101 70.818 166.051 67.688 165.981 64.568 L 165.981 64.528 C 165.941 60.938 165.771 51.158 165.711 50.118 C 165.331 44.258 160.821 39.318 155.211 38.638 C 148.871 37.868 143.351 41.338 141.781 47.088 C 141.271 48.948 141.241 51.008 141.211 53.188 C 141.201 54.048 141.181 54.928 141.141 55.808 C 141.121 56.208 141.111 56.868 141.121 57.268 C 141.121 57.508 141.141 57.758 141.141 57.998 C 141.171 59.648 139.311 60.618 137.971 59.658 C 135.781 58.078 134.061 56.408 132.401 54.798 L 126.351 48.938 C 120.311 43.078 114.271 37.228 108.201 31.398 C 103.801 27.168 97.861 26.848 93.411 30.608 C 91.331 32.358 90.111 34.668 89.661 37.658 C 89.611 37.968 89.651 38.288 89.751 38.578 C 89.891 38.998 90.101 39.578 90.191 39.678 C 97.201 46.688 116.331 63.308 120.381 66.818 C 120.801 67.178 120.831 67.818 120.461 68.228 C 120.091 68.638 119.471 68.668 119.061 68.298 C 119.061 68.298 89.081 41.308 89.011 41.258 L 86.481 39.538 C 82.501 36.818 79.621 35.758 77.261 35.758 C 75.361 35.758 73.791 36.448 72.261 37.518 C 67.011 41.168 65.891 45.928 68.731 52.508 L 68.791 52.658 C 69.161 53.528 69.721 54.308 70.411 54.948 L 103.331 85.398 C 103.731 85.768 103.761 86.398 103.381 86.798 L 103.371 86.798 C 103.001 87.218 102.371 87.238 101.971 86.868 L 68.841 56.328 C 68.451 55.968 68.001 55.678 67.521 55.468 C 67.521 55.468 66.721 55.418 66.531 55.448 C 61.951 56.098 59.021 58.418 57.581 62.548 C 56.051 66.908 57.011 70.708 60.531 74.148 C 61.141 74.748 61.821 75.338 62.551 75.988 L 63.081 76.568 L 90.281 100.378 C 90.691 100.738 90.721 101.368 90.361 101.778 L 90.361 101.798 C 89.981 102.208 89.361 102.238 88.951 101.878 L 65.971 81.338 C 65.251 80.738 62.771 81.248 62.771 81.248 C 62.391 81.348 62.141 81.418 61.901 81.468 C 57.761 82.328 55.101 84.638 53.781 88.528 C 52.351 92.758 53.181 96.438 56.271 99.478 C 61.971 105.088 70.121 112.748 78.001 120.148 C 84.501 126.258 90.631 132.018 95.311 136.548 C 95.401 136.638 95.501 136.718 95.591 136.778 L 95.811 136.968 C 95.961 137.108 96.101 137.228 96.261 137.328 C 110.621 146.448 125.101 147.418 140.531 140.268 C 147.331 137.118 152.561 131.738 157.331 126.508 C 163.461 119.778 166.561 111.888 166.551 103.058 C 166.551 98.998 166.461 94.858 166.381 90.858 L 166.411 90.818 Z"
		fill="#F2C94C" />
</svg>