<svg width="50" height="51" viewBox="0 0 50 51" fill="none" xmlns="http://www.w3.org/2000/svg">
<path d="M49.4011 25.0369C49.3764 23.8135 49.3641 22.5777 49.3394 21.3543C49.3147 19.6441 49.29 17.9464 49.253 16.2361V16.2112C49.2406 14.7132 49.1665 10.5937 49.1418 10.1193C48.9566 7.22317 46.7711 4.82638 44.0299 4.48933C41.0541 4.12731 38.3006 5.78759 37.5227 8.67125C37.177 9.94455 37.3004 11.3427 37.214 12.6909C37.2017 12.9655 37.214 13.2401 37.214 13.5148C36.2879 12.8407 35.5718 12.1166 34.8433 11.4051C31.5218 8.15942 28.2126 4.90128 24.8911 1.66809C22.7426 -0.416627 19.7792 -0.553948 17.606 1.29359C16.4823 2.2548 15.902 3.52811 15.7291 5.01363C12.8521 3.02878 10.8642 2.75414 8.85151 4.16476C6.15972 6.06223 5.85103 8.62131 7.0858 11.5174C6.96232 11.5424 6.88824 11.5799 6.8265 11.5799C4.66566 11.8919 3.13455 13.0529 2.41838 15.1251C1.65283 17.3347 2.20848 19.2821 3.85071 20.9049C4.33227 21.3793 4.83852 21.8037 5.4806 22.3904C5.12252 22.4903 4.97435 22.5277 4.82618 22.5527C2.83821 22.9771 1.46762 24.1631 0.825547 26.0855C0.13408 28.1453 0.541545 30.0552 2.07265 31.5782C6.39432 35.8724 14.0128 42.963 18.3715 47.2198C18.4456 47.2822 18.5074 47.3446 18.5814 47.3946C18.6679 47.482 18.779 47.5693 18.9025 47.6567C25.0886 51.6264 31.5218 52.0633 38.1648 48.955C41.0912 47.5818 43.3138 45.3098 45.4375 42.9505C48.1046 39.9919 49.5123 36.5091 49.4999 32.4895C49.4999 30.0053 49.4258 27.5211 49.3888 25.0369H49.4011Z" fill="#F2C94C"/>
</svg>
