<?xml version="1.0" encoding="UTF-8"?>
<svg id="Layer_1" xmlns="http://www.w3.org/2000/svg" viewBox="0 0 225.29 236.77">
	<defs>
		<style>.cls-1{fill:#f4cc00;}</style>
	</defs>
	<path class="cls-1"
		d="M151.95,131.78c-.04-1.81-.07-3.63-.1-5.44l-.03-2.03h.03l-.16-9.41c-.05-3.12-.1-6.25-.17-9.37v-.04c-.04-3.59-.21-13.37-.27-14.41-.38-5.86-4.89-10.8-10.5-11.48-6.34-.77-11.86,2.7-13.43,8.45-.51,1.86-.54,3.92-.57,6.1-.01,.86-.03,1.74-.07,2.62-.02,.4-.03,1.06-.02,1.46,0,.24,.02,.49,.02,.73h0c.03,1.65-1.83,2.62-3.17,1.66h0c-2.19-1.58-3.91-3.25-5.57-4.86l-6.05-5.86c-6.04-5.86-12.08-11.71-18.15-17.54-4.4-4.23-10.34-4.55-14.79-.79-2.08,1.75-3.3,4.06-3.75,7.05-.05,.31-.01,.63,.09,.92,.14,.42,.35,1,.44,1.1,7.01,7.01,26.14,23.63,30.19,27.14,.42,.36,.45,1,.08,1.41h0c-.37,.41-.99,.44-1.4,.07,0,0-29.98-26.99-30.05-27.04l-2.53-1.72c-3.98-2.72-6.86-3.78-9.22-3.78-1.9,0-3.47,.69-5,1.76-5.25,3.65-6.37,8.41-3.53,14.99l.06,.15c.37,.87,.93,1.65,1.62,2.29l32.92,30.45c.4,.37,.43,1,.05,1.4h-.01c-.37,.42-1,.44-1.4,.07l-33.13-30.54c-.39-.36-.84-.65-1.32-.86,0,0-.8-.05-.99-.02-4.58,.65-7.51,2.97-8.95,7.1-1.53,4.36-.57,8.16,2.95,11.6,.61,.6,1.29,1.19,2.02,1.84l.53,.58,27.2,23.81c.41,.36,.44,.99,.08,1.4v.02c-.38,.41-1,.44-1.41,.08l-22.98-20.54c-.72-.6-3.2-.09-3.2-.09-.38,.1-.63,.17-.87,.22-4.14,.86-6.8,3.17-8.12,7.06-1.43,4.23-.6,7.91,2.49,10.95,5.7,5.61,13.85,13.27,21.73,20.67,6.5,6.11,12.63,11.87,17.31,16.4,.09,.09,.19,.17,.28,.23l.22,.19c.15,.14,.29,.26,.45,.36,14.36,9.12,28.84,10.09,44.27,2.94,6.8-3.15,12.03-8.53,16.8-13.76,6.13-6.73,9.23-14.62,9.22-23.45,0-4.06-.09-8.2-.17-12.2Z" />
</svg>