<svg width="145" height="144" viewBox="0 0 145 144" fill="none" xmlns="http://www.w3.org/2000/svg">
<path d="M1 72C1 32.7878 33.1006 1 72.3128 1V1C111.525 1 143.626 32.7878 143.626 72V72C143.626 111.212 111.525 143 72.3128 143V143C33.1006 143 1 111.212 1 72V72Z" stroke="#FCD837" stroke-width="2" stroke-miterlimit="10" stroke-linecap="round" stroke-linejoin="round"/>
<g clip-path="url(#clip0_277_535)">
<path d="M78.7763 125.842C70.4038 115.516 63.1469 107.207 53.8288 99.1537C45.8494 92.2524 38.5394 85.6284 33.9813 75.6337C31.0381 69.1697 29.7419 62.439 31.4631 55.431C34.385 43.5377 48.8775 36.1457 61.2663 45.8737C64.6875 48.5617 67.5775 51.9964 70.5631 54.9404C72.0294 51.559 73.3788 47.6444 75.3231 44.103C79.3925 36.6897 85.47 32.2524 93.8 31.5804C104.935 30.6844 112.436 37.3724 113.478 49.3084C114.168 57.2657 112.628 68.2097 109.631 75.2604C104.436 87.4844 100.473 91.3457 90.5169 106.588C89.1888 108.615 79.2969 123.986 78.2131 125.074" fill="white"/>
<path d="M78.7763 125.842C70.4038 115.516 63.1469 107.207 53.8288 99.1537C45.8494 92.2524 38.5394 85.6284 33.9813 75.6337C31.0381 69.1697 29.7419 62.439 31.4631 55.431C34.385 43.5377 48.8775 36.1457 61.2663 45.8737C64.6875 48.5617 67.5775 51.9964 70.5631 54.9404C72.0294 51.559 73.3788 47.6444 75.3231 44.103C79.3925 36.6897 85.47 32.2524 93.8 31.5804C104.935 30.6844 112.436 37.3724 113.478 49.3084C114.168 57.2657 112.628 68.2097 109.631 75.2604C104.436 87.4844 100.473 91.3457 90.5169 106.588C89.1888 108.615 79.2969 123.986 78.2131 125.074" stroke="#828282" stroke-width="2" stroke-miterlimit="10"/>
<path d="M84.0476 75.1004C84.0264 74.055 84.0157 72.999 83.9945 71.9537C83.9732 70.4924 83.952 69.0417 83.9201 67.5804V67.559C83.9095 66.279 83.8458 62.759 83.8245 62.3537C83.6651 59.879 81.7845 57.831 79.4258 57.543C76.8651 57.2337 74.4957 58.6524 73.8264 61.1164C73.5289 62.2044 73.6351 63.399 73.5607 64.551C73.5501 64.7857 73.5607 65.0204 73.5607 65.255C72.7639 64.679 72.1476 64.0604 71.5208 63.4524C68.6626 60.679 65.8151 57.895 62.957 55.1324C61.1083 53.351 58.5583 53.2337 56.6883 54.8124C55.7214 55.6337 55.222 56.7217 55.0733 57.991C52.5976 56.295 50.887 56.0604 49.1551 57.2657C46.8389 58.887 46.5733 61.0737 47.6358 63.5484C47.5295 63.5697 47.4658 63.6017 47.4126 63.6017C45.5533 63.8684 44.2357 64.8604 43.6195 66.631C42.9607 68.519 43.4389 70.183 44.852 71.5697C45.2664 71.975 45.702 72.3377 46.2545 72.839C45.9464 72.9244 45.8189 72.9564 45.6914 72.9777C43.9808 73.3404 42.8014 74.3537 42.2489 75.9964C41.6539 77.7564 42.0045 79.3884 43.322 80.6897C47.0407 84.359 53.5964 90.4177 57.347 94.055C57.4108 94.1084 57.4639 94.1617 57.5276 94.2044C57.602 94.279 57.6976 94.3537 57.8039 94.4284C63.127 97.8204 68.6626 98.1937 74.3789 95.5377C76.897 94.3644 78.8095 92.423 80.637 90.407C82.932 87.879 84.1433 84.903 84.1326 81.4684C84.1326 79.3457 84.0689 77.223 84.037 75.1004H84.0476Z" fill="#F2C94C"/>
</g>
<defs>
<clipPath id="clip0_277_535">
<rect width="85" height="96" fill="white" transform="translate(29.9766 30.3643)"/>
</clipPath>
</defs>
</svg>
