<svg width="145" height="144" viewBox="0 0 145 144" fill="none" xmlns="http://www.w3.org/2000/svg">
<path d="M1 72C1 32.7878 33.1006 1 72.3128 1V1C111.525 1 143.626 32.7878 143.626 72V72C143.626 111.212 111.525 143 72.3128 143V143C33.1006 143 1 111.212 1 72V72Z" stroke="#FCD837" stroke-width="2" stroke-miterlimit="10" stroke-linecap="round" stroke-linejoin="round"/>
<g clip-path="url(#clip0_277_515)">
<path d="M90.2146 49.331C90.6721 48.8237 91.1378 48.3247 91.5953 47.8173C92.2357 47.1187 92.8761 46.4118 93.5082 45.7132C94.0737 45.0894 95.6123 43.401 95.7787 43.2014C96.81 41.9622 96.8349 40.1574 95.8535 38.9764C94.789 37.6956 93.0424 37.313 91.6285 38.1863C91.0047 38.5689 90.5224 39.1844 89.9735 39.7C89.8653 39.8081 89.7655 39.9246 89.6657 40.041C89.5493 39.4172 89.5327 38.8517 89.5077 38.2778C89.3996 35.6996 89.2998 33.1213 89.1917 30.5431C89.1168 28.8797 87.9691 27.6903 86.3805 27.6155C85.5571 27.5739 84.8419 27.865 84.2015 28.4056C83.794 26.501 83.0953 25.6361 81.7397 25.4365C79.9266 25.1703 78.8287 26.0935 78.2216 27.7403C78.1634 27.707 78.1218 27.6903 78.0885 27.6654C77.0988 26.9668 76.0343 26.8587 74.9531 27.4242C73.8053 28.023 73.2897 29.0211 73.3313 30.3102C73.3479 30.6844 73.3895 31.0504 73.4311 31.5328C73.2481 31.433 73.1732 31.3997 73.1067 31.3498C72.1419 30.7593 71.1356 30.7177 70.1375 31.25C69.073 31.8156 68.5074 32.747 68.549 33.9447C68.6571 37.3297 69.0397 43.1099 69.1811 46.4866C69.1811 46.5365 69.1894 46.5864 69.1977 46.6363C69.1977 46.7029 69.2061 46.7777 69.231 46.8609C70.2207 50.8281 72.6576 53.4562 76.5333 54.737C78.2382 55.3026 80.0014 55.2277 81.7646 55.0863C83.9686 54.9034 85.8649 54.0301 87.3952 52.4083C88.3433 51.4019 89.2582 50.3706 90.1897 49.3476L90.2146 49.331Z" fill="#F2C94C" stroke="#828282" stroke-width="2" stroke-miterlimit="10"/>
<path d="M101.228 68.3436C101.91 68.3104 102.592 68.2771 103.274 68.2521C104.222 68.2106 105.17 68.169 106.118 68.1191H106.126C106.958 68.0858 109.245 67.9777 109.503 67.9527C111.108 67.803 112.406 66.5472 112.547 65.0168C112.705 63.3618 111.732 61.8564 110.118 61.4655C109.403 61.2909 108.63 61.3823 107.881 61.3657C107.731 61.3657 107.573 61.374 107.424 61.3823C107.781 60.8584 108.172 60.4425 108.555 60.0267C110.301 58.1304 112.056 56.2342 113.803 54.3296C114.926 53.107 114.951 51.4436 113.886 50.2709C113.329 49.6638 112.622 49.356 111.79 49.2895C112.846 47.6594 112.971 46.5449 112.148 45.4471C111.05 43.9833 109.628 43.8502 108.039 44.5904C108.023 44.5239 108.006 44.4823 107.998 44.4407C107.79 43.2431 107.116 42.4114 105.952 42.0455C104.712 41.6546 103.639 42.0039 102.766 42.9354C102.508 43.2098 102.284 43.5009 101.968 43.8669C101.91 43.6673 101.885 43.5841 101.86 43.5092C101.594 42.4114 100.912 41.6712 99.8303 41.3385C98.6743 40.9892 97.618 41.247 96.803 42.1203C94.4908 44.5904 90.6734 48.9485 88.3779 51.4353C88.3446 51.4769 88.3114 51.5185 88.2864 51.5517C88.2365 51.6016 88.1949 51.6598 88.145 51.7347C86.0408 55.2444 85.8994 58.8207 87.7458 62.4719C88.5526 64.077 89.85 65.2747 91.1973 66.4141C92.8857 67.8446 94.8402 68.5682 97.0774 68.5016C98.458 68.4601 99.8386 68.3769 101.219 68.3187L101.228 68.3436Z" fill="white" stroke="#828282" stroke-width="2" stroke-miterlimit="10"/>
<path d="M94.7314 89.6765C95.2387 90.134 95.7377 90.5997 96.245 91.0571C96.9437 91.6975 97.6506 92.338 98.3492 92.97H98.3575C98.973 93.5439 100.661 95.0826 100.861 95.2489C102.1 96.2802 103.905 96.3051 105.086 95.3237C106.367 94.2592 106.749 92.5126 105.876 91.0987C105.493 90.475 104.878 89.9926 104.362 89.4437C104.254 89.3355 104.138 89.2357 104.021 89.1359C104.645 89.0195 105.211 89.0029 105.785 88.9779C108.363 88.8698 110.941 88.77 113.519 88.6619C115.183 88.587 116.372 87.4393 116.447 85.8507C116.488 85.0274 116.197 84.3121 115.657 83.6717C117.561 83.2642 118.426 82.5656 118.626 81.2099C118.892 79.3968 117.969 78.299 116.322 77.6918C116.355 77.6336 116.372 77.592 116.397 77.5588C117.096 76.569 117.204 75.5045 116.638 74.4233C116.039 73.2755 115.041 72.7599 113.752 72.8015C113.378 72.8181 113.012 72.8597 112.53 72.9013C112.629 72.7183 112.663 72.6434 112.713 72.5769C113.303 71.6121 113.345 70.6058 112.812 69.6078C112.247 68.5432 111.315 67.9776 110.118 68.0192C106.733 68.1274 100.952 68.5099 97.5757 68.6513C97.5258 68.6513 97.4759 68.6596 97.426 68.668C97.3595 68.668 97.2847 68.6763 97.2015 68.7012C93.2343 69.6909 90.6062 72.1278 89.3253 76.0035C88.7598 77.7085 88.8346 79.4717 88.976 81.2348C89.159 83.4388 90.0323 85.3351 91.6541 86.8654C92.6604 87.8135 93.6917 88.7284 94.7147 89.6599L94.7314 89.6765Z" fill="white" stroke="#828282" stroke-width="2" stroke-miterlimit="10"/>
<path d="M75.4276 100.904C75.4692 101.586 75.5108 102.268 75.5607 102.95C75.6189 103.898 75.6771 104.846 75.7436 105.786C75.7935 106.626 75.9349 108.913 75.9682 109.171C76.1512 110.776 77.4237 112.049 78.954 112.165C80.6174 112.29 82.1061 111.292 82.4637 109.679C82.6217 108.963 82.5136 108.19 82.5303 107.441C82.5303 107.292 82.5136 107.134 82.5053 106.984C83.0376 107.333 83.4534 107.716 83.8776 108.09C85.8071 109.803 87.7283 111.525 89.6662 113.238C90.9137 114.336 92.5688 114.336 93.7248 113.255C94.3237 112.689 94.6148 111.974 94.673 111.142C96.3197 112.174 97.4342 112.273 98.5154 111.433C99.9626 110.311 100.062 108.88 99.3055 107.308C99.372 107.292 99.4136 107.275 99.4469 107.267C100.636 107.042 101.46 106.352 101.801 105.179C102.167 103.931 101.801 102.867 100.852 102.01C100.578 101.761 100.279 101.536 99.9043 101.228C100.104 101.17 100.179 101.137 100.262 101.12C101.36 100.838 102.083 100.139 102.399 99.0578C102.732 97.9017 102.458 96.8455 101.568 96.0387C99.056 93.7682 94.6314 90.0339 92.103 87.78C92.0615 87.7467 92.0199 87.7135 91.9783 87.6885C91.9284 87.6386 91.8619 87.597 91.7953 87.5555C88.2523 85.5095 84.6677 85.4346 81.0582 87.3392C79.4696 88.1792 78.2969 89.4933 77.1741 90.8656C75.7686 92.5789 75.0866 94.55 75.1947 96.7789C75.2612 98.1595 75.3694 99.5318 75.4525 100.912L75.4276 100.904Z" fill="white" stroke="#828282" stroke-width="2" stroke-miterlimit="10"/>
<path d="M54.1926 94.5004C53.7352 95.0077 53.2694 95.5068 52.812 96.0141C52.1716 96.7127 51.5312 97.4196 50.8991 98.1183C50.3336 98.742 48.7949 100.43 48.6286 100.63C47.5973 101.869 47.5723 103.674 48.5537 104.855C49.6183 106.136 51.3649 106.518 52.7787 105.645C53.4025 105.263 53.8849 104.647 54.4338 104.131C54.5419 104.023 54.6417 103.907 54.7415 103.79C54.858 104.414 54.8746 104.98 54.8996 105.554C55.0077 108.132 55.1075 110.71 55.2156 113.288C55.2905 114.952 56.4382 116.141 58.0267 116.216C58.8501 116.258 59.5654 115.966 60.2058 115.426C60.6133 117.33 61.3119 118.195 62.6676 118.395C64.4807 118.661 65.5785 117.738 66.1856 116.091C66.2439 116.124 66.2855 116.141 66.3187 116.166C67.3084 116.865 68.373 116.973 69.4542 116.407C70.6019 115.808 71.1176 114.81 71.076 113.521C71.0594 113.147 71.0178 112.781 70.9762 112.299C71.1592 112.398 71.234 112.432 71.3006 112.482C72.2653 113.072 73.2717 113.114 74.2697 112.581C75.3343 112.016 75.8998 111.084 75.8582 109.887C75.7501 106.502 75.3675 100.721 75.2262 97.3448C75.2262 97.2949 75.2178 97.245 75.2095 97.1951C75.2095 97.1286 75.2012 97.0537 75.1763 96.9705C74.1865 93.0033 71.7497 90.3752 67.874 89.0944C66.169 88.5288 64.4058 88.6037 62.6426 88.7451C60.4386 88.9281 58.5424 89.8013 57.0121 91.4231C56.0639 92.4295 55.1491 93.4608 54.2176 94.4838L54.1926 94.5004Z" fill="white" stroke="#828282" stroke-width="2" stroke-miterlimit="10"/>
<path d="M43.0274 75.4713C42.3454 75.5046 41.6634 75.5378 40.9814 75.5628C40.0333 75.6044 39.0852 75.646 38.137 75.6959H38.1287C37.297 75.7291 35.0099 75.8372 34.752 75.8622C33.1469 76.0119 31.8494 77.2678 31.708 78.7981C31.55 80.4531 32.5231 81.9585 34.1366 82.3494C34.8519 82.5241 35.6253 82.4326 36.3738 82.4492C36.5236 82.4492 36.6816 82.4409 36.8313 82.4326C36.4737 82.9566 36.0828 83.3724 35.7002 83.7882C33.9536 85.6845 32.1987 87.5808 30.4522 89.4853C29.3294 90.7079 29.3044 92.3713 30.369 93.544C30.9263 94.1512 31.6332 94.4589 32.4649 94.5254C31.4086 96.1555 31.2839 97.27 32.1073 98.3678C33.2051 99.8316 34.6273 99.9647 36.2158 99.2245C36.2325 99.291 36.2491 99.3326 36.2574 99.3742C36.4653 100.572 37.139 101.404 38.3034 101.769C39.5426 102.16 40.6155 101.811 41.4888 100.88C41.7466 100.605 41.9711 100.314 42.2872 99.9481C42.3454 100.148 42.3704 100.231 42.3953 100.306C42.6614 101.404 43.3434 102.144 44.4246 102.476C45.5807 102.826 46.6369 102.568 47.452 101.695C49.7641 99.2245 53.5816 94.8664 55.8771 92.3796C55.9103 92.3381 55.9436 92.2965 55.9686 92.2632C56.0185 92.2133 56.06 92.1551 56.1099 92.0802C58.2141 88.5705 58.3555 84.9942 56.5092 81.3431C55.7024 79.7379 54.405 78.5403 53.0576 77.4008C51.3693 75.9703 49.4148 75.2468 47.1775 75.3133C45.7969 75.3549 44.4163 75.438 43.0357 75.4963L43.0274 75.4713Z" fill="white" stroke="#828282" stroke-width="2" stroke-miterlimit="10"/>
<path d="M49.1873 53.8801C48.6716 53.431 48.1643 52.9736 47.6486 52.5245C46.9334 51.9007 46.2264 51.2686 45.5112 50.6449H45.5029C44.8791 50.0793 43.1658 48.5739 42.9579 48.4076C41.6937 47.4012 39.8972 47.4012 38.7329 48.4076C37.4687 49.4971 37.1194 51.252 38.0176 52.6492C38.4085 53.2647 39.0323 53.7387 39.5562 54.2793C39.6644 54.3875 39.7808 54.479 39.8972 54.5871C39.2735 54.7118 38.7079 54.7451 38.1424 54.7701C35.5641 54.9198 32.9859 55.0611 30.4076 55.2275C28.7525 55.3273 27.5799 56.5 27.53 58.0885C27.505 58.9119 27.8044 59.6271 28.3533 60.2509C26.4571 60.6917 25.6004 61.407 25.4258 62.7626C25.1929 64.584 26.1327 65.6569 27.7878 66.2391C27.7545 66.2973 27.7379 66.3389 27.7129 66.3722C27.0309 67.3785 26.9394 68.4431 27.5216 69.516C28.1454 70.6554 29.1518 71.1544 30.4326 71.0879C30.8068 71.0712 31.1728 71.013 31.6552 70.9714C31.5553 71.1544 31.5221 71.2293 31.4805 71.3041C30.9066 72.2772 30.8817 73.2836 31.4306 74.2733C32.0211 75.3212 32.9526 75.8784 34.1502 75.8119C37.5352 75.6456 43.2989 75.1549 46.6839 74.9636C46.7338 74.9636 46.7837 74.9553 46.8336 74.9469C46.9001 74.9469 46.9749 74.9303 47.0581 74.9137C51.0087 73.8574 53.5952 71.3707 54.8012 67.47C55.3335 65.7484 55.2337 63.9935 55.059 62.2303C54.8428 60.0264 53.9362 58.1467 52.2812 56.6497C51.2582 55.7182 50.2102 54.82 49.1706 53.9051L49.1873 53.8801Z" fill="white" stroke="#828282" stroke-width="2" stroke-miterlimit="10"/>
<path d="M69.0888 43.2928C69.0473 42.6108 69.0057 41.9288 68.9558 41.2468C68.8975 40.2987 68.8393 39.3506 68.7728 38.4107C68.7229 37.5707 68.5815 35.2836 68.5482 35.0258C68.3653 33.4206 67.0928 32.1481 65.5625 32.0317C63.8991 31.9069 62.4103 32.9049 62.0527 34.5184C61.8947 35.2337 62.0028 36.0071 61.9862 36.7557C61.9862 36.9054 62.0028 37.0634 62.0111 37.2131C61.4788 36.8638 61.063 36.4812 60.6388 36.107C58.7093 34.3937 56.7881 32.6721 54.8502 30.9588C53.6027 29.8609 51.9476 29.8609 50.7916 30.9421C50.1928 31.5077 49.9017 32.2229 49.8434 33.0546C48.1967 32.0233 47.0822 31.9235 46.001 32.7635C44.5539 33.8863 44.4541 35.3168 45.2109 36.8887C45.1444 36.9054 45.1028 36.922 45.0695 36.9303C43.8802 37.1549 43.0568 37.8452 42.7158 39.0179C42.3499 40.2654 42.7158 41.33 43.664 42.1866C43.9384 42.4361 44.2378 42.6607 44.6121 42.9684C44.4125 43.0266 44.3376 43.0599 44.2545 43.0765C43.1566 43.3593 42.4331 44.0579 42.117 45.1391C41.7843 46.2952 42.0588 47.3514 42.9487 48.1582C45.4604 50.4287 49.885 54.163 52.4134 56.4169C52.455 56.4502 52.4965 56.4834 52.5381 56.5084C52.588 56.5583 52.6546 56.5999 52.7211 56.6415C56.2641 58.6874 59.8487 58.7623 63.4583 56.8577C65.0468 56.0177 66.2195 54.7036 67.3423 53.3313C68.7478 51.618 69.4298 49.6469 69.3217 47.418C69.2552 46.0374 69.1471 44.6651 69.0639 43.2845L69.0888 43.2928Z" fill="white" stroke="#828282" stroke-width="2" stroke-miterlimit="10"/>
</g>
<defs>
<clipPath id="clip0_277_515">
<rect width="96" height="96" fill="white" transform="translate(24 24)"/>
</clipPath>
</defs>
</svg>
