<svg width="145" height="144" viewBox="0 0 145 144" fill="none" xmlns="http://www.w3.org/2000/svg">
<path d="M1 72C1 32.7878 33.1006 1 72.3128 1V1C111.525 1 143.626 32.7878 143.626 72V72C143.626 111.212 111.525 143 72.3128 143V143C33.1006 143 1 111.212 1 72V72Z" stroke="#FCD837" stroke-width="2" stroke-miterlimit="10" stroke-linecap="round" stroke-linejoin="round"/>
<g clip-path="url(#clip0_277_167)">
<path d="M57.0456 74.1309C56.7557 73.714 56.4738 73.297 56.1839 72.88C55.7813 72.3026 55.3867 71.7173 54.984 71.1399C54.6377 70.6187 53.6714 69.2234 53.5586 69.071C52.8338 68.1168 51.6098 67.7399 50.6837 68.1809C49.677 68.6621 49.2019 69.7927 49.6207 70.9394C49.8059 71.4446 50.1602 71.9017 50.4501 72.3828C50.5065 72.4791 50.579 72.5673 50.6434 72.6635C50.2005 72.6234 49.8139 72.5191 49.4193 72.4229C47.6477 71.9819 45.876 71.5408 44.0962 71.1158C42.9527 70.8352 41.9944 71.3965 41.7447 72.471C41.6159 73.0324 41.7286 73.5856 42.0105 74.1309C40.6656 74.0347 39.9811 74.3474 39.6831 75.2456C39.2805 76.4484 39.7717 77.3866 40.8186 78.1243C40.7864 78.1564 40.7703 78.1805 40.7542 78.2045C40.1583 78.7498 39.9489 79.4635 40.1985 80.3215C40.4643 81.2356 41.0844 81.789 41.9702 82.0135C42.2279 82.0776 42.4856 82.1177 42.8158 82.1899C42.7272 82.2941 42.6869 82.3423 42.6547 82.3824C42.1313 82.9357 41.9783 83.6173 42.2199 84.4111C42.4776 85.2531 43.0413 85.8305 43.8627 86.039C46.19 86.6324 50.1763 87.5064 52.5037 88.0838C52.5439 88.0918 52.5761 88.0998 52.6084 88.0998C52.6567 88.1158 52.713 88.1239 52.7694 88.1239C55.6041 88.2281 57.6979 87.0654 59.0508 84.6357C59.6468 83.5691 59.8159 82.3342 59.9367 81.0913C60.0897 79.5357 59.7273 78.0522 58.8012 76.6729C58.2294 75.8229 57.6415 74.9809 57.0617 74.139L57.0456 74.1309Z" fill="#F2C94C" stroke="#828282" stroke-width="2" stroke-miterlimit="10"/>
<path d="M90.0057 48.23C89.7721 47.8852 89.5305 47.5404 89.297 47.2036C88.9668 46.7305 88.6447 46.2494 88.3145 45.7763C88.0326 45.3513 87.2354 44.2046 87.1388 44.0763C86.5428 43.2904 85.4798 43.0258 84.6342 43.4428C83.7242 43.8918 83.2572 44.8781 83.5712 45.8404C83.7081 46.2654 84.0142 46.6343 84.2396 47.0272C84.288 47.1074 84.3443 47.1796 84.4007 47.2597C84.0142 47.2437 83.6759 47.1715 83.3296 47.1074C81.7834 46.8107 80.2292 46.514 78.683 46.2253C77.6844 46.0409 76.8147 46.5541 76.5489 47.4843C76.412 47.9654 76.4845 48.4305 76.71 48.8796C75.5181 48.8555 74.9061 49.1522 74.6001 49.922C74.1894 50.9564 74.584 51.7343 75.4779 52.3277C75.4457 52.3597 75.4376 52.3758 75.4134 52.3918C74.8578 52.881 74.6484 53.4984 74.8336 54.2201C75.0269 54.9819 75.5503 55.431 76.3234 55.5833C76.5489 55.6314 76.7744 55.6555 77.0643 55.6956C76.9757 55.7918 76.9435 55.8319 76.9113 55.864C76.4281 56.3531 76.259 56.9465 76.4362 57.6121C76.6295 58.3178 77.0965 58.7829 77.8213 58.9272C79.8507 59.3281 83.3377 59.9055 85.3751 60.2984C85.4073 60.2984 85.4395 60.3064 85.4637 60.3064C85.504 60.3145 85.5523 60.3225 85.6006 60.3225C88.0971 60.2904 90.0057 59.2079 91.3022 57.0909C91.874 56.1607 92.0753 55.1022 92.2364 54.0357C92.4377 52.7046 92.18 51.4616 91.423 50.3229C90.9559 49.6253 90.4727 48.9357 89.9896 48.2461L90.0057 48.23Z" fill="#F2C94C" stroke="#828282" stroke-width="2" stroke-miterlimit="10"/>
<path d="M70.0594 107.802C69.8903 107.562 69.7292 107.321 69.5601 107.081C69.3266 106.744 69.1011 106.407 68.8676 106.078C68.6662 105.782 68.1106 104.972 68.0381 104.884C67.6193 104.33 66.8704 104.146 66.2745 104.442C65.6302 104.763 65.3 105.453 65.5255 106.126C65.6222 106.423 65.8315 106.688 65.9926 106.96C66.0248 107.017 66.0651 107.065 66.1053 107.121C65.8315 107.105 65.5899 107.057 65.3564 107.017C64.2692 106.808 63.174 106.6 62.0868 106.391C61.3862 106.263 60.7742 106.624 60.5809 107.273C60.4843 107.61 60.5326 107.939 60.6937 108.259C59.8561 108.243 59.4213 108.452 59.2119 108.997C58.922 109.727 59.2038 110.272 59.832 110.689C59.8159 110.713 59.7998 110.729 59.7917 110.737C59.4052 111.082 59.2521 111.515 59.381 112.02C59.5179 112.558 59.8883 112.87 60.4279 112.975C60.589 113.007 60.742 113.023 60.9514 113.055C60.895 113.119 60.8708 113.151 60.8467 113.175C60.5084 113.52 60.3876 113.937 60.5165 114.402C60.6534 114.899 60.9836 115.228 61.4909 115.332C62.9163 115.621 65.3725 116.022 66.806 116.294C66.8301 116.294 66.8462 116.294 66.8704 116.294C66.9026 116.294 66.9348 116.302 66.967 116.302C68.7226 116.278 70.0675 115.517 70.9855 114.025C71.3882 113.367 71.5331 112.63 71.6459 111.876C71.7908 110.938 71.6056 110.064 71.0741 109.262C70.7439 108.773 70.4057 108.284 70.0675 107.794L70.0594 107.802Z" fill="#F2C94C" stroke="#828282" stroke-width="2" stroke-miterlimit="10"/>
<path d="M91.0946 89.1505C90.9254 88.9099 90.7644 88.6694 90.5953 88.4288C90.3617 88.092 90.1362 87.7552 89.9027 87.4265C89.7014 87.1298 89.1457 86.3199 89.0732 86.2316C88.6545 85.6783 87.9055 85.4939 87.3096 85.7906C86.6654 86.1114 86.3352 86.801 86.5607 87.4746C86.6573 87.7713 86.8667 88.0359 87.0277 88.3085C87.06 88.3647 87.1002 88.4128 87.1405 88.4689C86.8667 88.4529 86.6251 88.4048 86.3916 88.3647C85.3044 88.1562 84.2092 87.9477 83.122 87.7392C82.4214 87.6109 81.8093 87.9717 81.6161 88.6213C81.5194 88.9581 81.5677 89.2868 81.7288 89.6076C80.8913 89.5915 80.4564 89.8 80.247 90.3453C79.9571 91.075 80.239 91.6203 80.8671 92.0373C80.851 92.0614 80.8349 92.0774 80.8269 92.0854C80.4403 92.4302 80.2873 92.8632 80.4162 93.3684C80.5531 93.9057 80.9235 94.2184 81.4631 94.3227C81.6241 94.3548 81.7771 94.3708 81.9865 94.4029C81.9301 94.467 81.906 94.4991 81.8818 94.5232C81.5436 94.868 81.4228 95.2849 81.5516 95.75C81.6885 96.2472 82.0187 96.576 82.5261 96.6802C83.9515 96.9689 86.4077 97.3699 87.8411 97.6425C87.8653 97.6425 87.8814 97.6425 87.9055 97.6425C87.9377 97.6425 87.97 97.6505 88.0022 97.6505C89.7578 97.6265 91.1026 96.8647 92.0207 95.3732C92.4233 94.7156 92.5683 93.9779 92.681 93.2241C92.826 92.2859 92.6408 91.4118 92.1093 90.6099C91.7791 90.1208 91.4408 89.6316 91.1026 89.1425L91.0946 89.1505Z" fill="#F2C94C" stroke="#828282" stroke-width="2" stroke-miterlimit="10"/>
<path d="M114.833 68.4137C114.664 68.1731 114.503 67.9326 114.334 67.692C114.1 67.3552 113.875 67.0184 113.641 66.6896C113.44 66.3929 112.884 65.583 112.812 65.4948C112.393 64.9415 111.644 64.7571 111.048 65.0538C110.404 65.3745 110.073 66.0642 110.299 66.7378C110.396 67.0345 110.605 67.2991 110.766 67.5717C110.798 67.6278 110.839 67.676 110.879 67.7321C110.605 67.7161 110.363 67.6679 110.13 67.6278C109.043 67.4194 107.947 67.2109 106.86 67.0024C106.16 66.8741 105.548 67.2349 105.354 67.8845C105.258 68.2212 105.306 68.55 105.467 68.8708C104.63 68.8547 104.195 69.0632 103.985 69.6085C103.695 70.3382 103.977 70.8835 104.605 71.3005C104.589 71.3245 104.573 71.3406 104.565 71.3486C104.179 71.6934 104.026 72.1264 104.154 72.6316C104.291 73.1689 104.662 73.4816 105.201 73.5859C105.362 73.6179 105.515 73.634 105.725 73.6661C105.668 73.7302 105.644 73.7623 105.62 73.7863C105.282 74.1312 105.161 74.5481 105.29 75.0132C105.427 75.5104 105.757 75.8392 106.264 75.9434C107.69 76.2321 110.146 76.633 111.579 76.9057C111.604 76.9057 111.62 76.9057 111.644 76.9057C111.676 76.9057 111.708 76.9137 111.74 76.9137C113.496 76.8896 114.841 76.1278 115.759 74.6363C116.162 73.9788 116.307 73.2411 116.419 72.4873C116.564 71.5491 116.379 70.675 115.848 69.8731C115.517 69.384 115.179 68.8948 114.841 68.4057L114.833 68.4137Z" fill="#F2C94C" stroke="#828282" stroke-width="2" stroke-miterlimit="10"/>
<path d="M46.9134 38.7919C46.6155 38.3589 46.3095 37.9178 46.0115 37.4848C45.5927 36.8754 45.174 36.274 44.7552 35.6725C44.3928 35.1273 43.3862 33.6678 43.2573 33.5074C42.5003 32.5131 41.1394 32.1683 40.0683 32.7056C38.9087 33.2829 38.3127 34.5339 38.7154 35.7527C38.8926 36.29 39.2711 36.7631 39.569 37.2683C39.6254 37.3725 39.7059 37.4607 39.7703 37.565C39.2791 37.5409 38.8442 37.4527 38.4094 37.3725C36.4364 36.9957 34.4634 36.6188 32.4903 36.2419C31.218 36.0013 30.1147 36.6589 29.7765 37.8376C29.5993 38.4551 29.6959 39.0405 29.9858 39.6178C28.4718 39.5857 27.6907 39.9626 27.3042 40.949C26.7807 42.2721 27.288 43.2584 28.4235 44.0041C28.3833 44.0442 28.3672 44.0683 28.343 44.0924C27.6424 44.7178 27.3686 45.4957 27.6021 46.4178C27.8518 47.3881 28.5202 47.9574 29.5026 48.1499C29.7845 48.206 30.0744 48.2381 30.4449 48.2942C30.3402 48.4145 30.2918 48.4626 30.2516 48.5107C29.6315 49.1362 29.4221 49.882 29.6476 50.732C29.8892 51.6301 30.4932 52.2235 31.4032 52.4079C33.9882 52.9211 38.4255 53.6508 41.0186 54.148C41.0588 54.148 41.0991 54.156 41.1394 54.164C41.1957 54.1721 41.2521 54.1801 41.3165 54.1801C44.4975 54.132 46.9215 52.7607 48.5804 50.0664C49.3133 48.8796 49.571 47.5405 49.7723 46.1853C50.03 44.4853 49.6998 42.9056 48.7415 41.4622C48.1456 40.5721 47.5255 39.698 46.9215 38.8159L46.9134 38.7919Z" fill="#F2C94C" stroke="#828282" stroke-width="2" stroke-miterlimit="10"/>
</g>
<defs>
<clipPath id="clip0_277_167">
<rect width="92" height="87" fill="white" transform="translate(26 31)"/>
</clipPath>
</defs>
</svg>
