<svg width="35" height="36" viewBox="0 0 35 36" fill="none" xmlns="http://www.w3.org/2000/svg">
	<path
		d="M1.57279 17.7043C1.54666 19.2626 1.50187 20.821 1.5 22.3812C1.49814 24.9021 2.38842 27.0879 4.08499 28.946C5.43814 30.428 6.84915 31.8523 8.70997 32.7125C12.9411 34.6674 17.0286 34.3956 20.963 31.9007C21.0451 31.8486 21.1104 31.7946 21.1683 31.7387C21.2131 31.7071 21.2579 31.6698 21.3008 31.6289C24.0687 28.9553 28.9158 24.5092 31.6613 21.8133C32.6337 20.8601 32.8894 19.6573 32.4508 18.3689C32.0402 17.1587 31.1686 16.414 29.9031 16.1515C29.8117 16.1329 29.7221 16.1049 29.4907 16.0454C29.8994 15.6823 30.2279 15.4123 30.5302 15.1163C31.5736 14.096 31.9282 12.8747 31.4429 11.4913C30.9857 10.188 30.0133 9.4582 28.6396 9.26271C28.5929 9.25526 28.5481 9.24037 28.4716 9.22175C29.2573 7.4046 29.0651 5.7997 27.3499 4.61185C26.0695 3.72376 24.8041 3.89877 22.975 5.14434C22.8649 4.21156 22.4972 3.41656 21.7805 2.81332C20.4012 1.65154 18.5105 1.73905 17.148 3.04605C15.0315 5.07545 12.9262 7.11602 10.8172 9.15472C10.3543 9.60342 9.89514 10.0558 9.30722 10.4785C9.31095 10.3053 9.32402 10.134 9.31469 9.9609C9.26243 9.11749 9.34082 8.23684 9.12245 7.43811C8.62598 5.634 6.87341 4.58765 4.98273 4.81665C3.23763 5.0289 1.85089 6.52954 1.73144 8.34669C1.71277 8.64272 1.66798 11.2251 1.65865 12.1653C1.65865 12.169 1.65865 12.1746 1.65865 12.1783C1.63625 13.2489 1.61945 14.3194 1.60265 15.39C1.58959 16.1608 1.57653 16.9335 1.56346 17.7043H1.57092H1.57279Z"
		fill="white" stroke="black" stroke-width="3" stroke-miterlimit="10" />
</svg>
	