<svg width="62" height="38" viewBox="0 0 62 38" fill="none" xmlns="http://www.w3.org/2000/svg">
	<g clip-path="url(#clip0_154_448)">
		<path
			d="M35.6931 18.6823C35.6791 17.8541 35.6671 17.024 35.651 16.1958C35.631 15.0456 35.6129 13.8954 35.5909 12.7452C35.5909 12.7412 35.5909 12.7352 35.5909 12.7312C35.5829 11.721 35.5347 8.94654 35.5127 8.62848C35.3863 6.67613 33.8964 5.06184 32.0194 4.8358C29.99 4.58975 28.1051 5.71195 27.5716 7.6523C27.335 8.51046 27.4192 9.45663 27.3651 10.3628C27.3531 10.5468 27.3691 10.7329 27.3731 10.9189C26.7414 10.4648 26.2501 9.97672 25.7508 9.49664C23.4848 7.30824 21.2228 5.11385 18.9488 2.93345C17.4849 1.5292 15.4515 1.43519 13.9716 2.68341C13.2016 3.33353 12.8065 4.18568 12.6882 5.18786C10.723 3.84962 9.36342 3.66159 7.98778 4.61576C6.1449 5.89199 5.93836 7.6163 6.78259 9.56865C6.70037 9.58865 6.65225 9.60666 6.60211 9.61266C5.12821 9.8227 4.08344 10.6068 3.59014 12.0071C3.06675 13.4934 3.44976 14.8056 4.57073 15.9018C4.89559 16.2198 5.25053 16.5099 5.68769 16.9C5.43903 16.964 5.34278 16.992 5.24452 17.014C3.88492 17.296 2.94844 18.0962 2.50727 19.3964C2.03602 20.7807 2.31275 22.0729 3.35552 23.0971C6.30533 25.9916 11.5151 30.7705 14.487 33.643C14.5331 33.689 14.5812 33.727 14.6294 33.761C14.6915 33.821 14.7617 33.879 14.85 33.935C19.0771 36.6155 23.4688 36.9076 28.0148 34.8072C30.0161 33.883 31.5301 32.3528 32.984 30.7605C34.8048 28.7661 35.7633 26.4177 35.7613 23.7072C35.7613 22.0329 35.7112 20.3586 35.6831 18.6823H35.6911H35.6931Z"
			fill="white" stroke="black" stroke-width="3" stroke-miterlimit="10" />
		<path
			d="M26.7931 18.6823C26.765 20.3566 26.7169 22.0309 26.7148 23.7072C26.7128 26.4157 27.6694 28.7641 29.4922 30.7605C30.946 32.3528 32.462 33.883 34.4613 34.8072C39.0072 36.9076 43.3988 36.6155 47.626 33.935C47.7142 33.879 47.7844 33.821 47.8466 33.761C47.8947 33.727 47.9428 33.687 47.9889 33.643C50.9628 30.7705 56.1705 25.9936 59.1203 23.0971C60.165 22.0729 60.4397 20.7807 59.9685 19.3964C59.5273 18.0962 58.5909 17.296 57.2313 17.014C57.133 16.994 57.0368 16.964 56.7881 16.9C57.2273 16.5099 57.5802 16.2198 57.9051 15.9018C59.026 14.8056 59.407 13.4934 58.8857 12.0071C58.3944 10.6068 57.3496 9.8227 55.8737 9.61266C55.8236 9.60466 55.7754 9.58865 55.6932 9.56865C56.5375 7.6163 56.3309 5.89199 54.4881 4.61576C53.1124 3.66159 51.7528 3.84962 49.7877 5.18786C49.6694 4.18568 49.2743 3.33153 48.5043 2.68341C47.0224 1.43519 44.991 1.5292 43.5272 2.93345C41.2532 5.11385 38.9912 7.30624 36.7252 9.49664C36.2279 9.97872 35.7346 10.4648 35.103 10.9189C35.107 10.7329 35.121 10.5488 35.111 10.3628C35.0548 9.45663 35.1391 8.51046 34.9044 7.6523C34.371 5.71396 32.4881 4.58975 30.4567 4.8358C28.5818 5.06384 27.0918 6.67613 26.9635 8.62848C26.9434 8.94654 26.8953 11.721 26.8853 12.7312C26.8853 12.7352 26.8853 12.7412 26.8853 12.7452C26.8612 13.8954 26.8432 15.0456 26.8251 16.1958C26.8111 17.024 26.7971 17.8541 26.783 18.6823H26.791H26.7931Z"
			fill="white" stroke="black" stroke-width="3" stroke-miterlimit="10" />
	</g>
	<defs>
		<clipPath id="clip0_154_448">
			<rect width="61.5238" height="38" fill="white" transform="translate(0.476562)" />
		</clipPath>
	</defs>
</svg>
	