<svg width="32" height="33" viewBox="0 0 32 33" fill="none" xmlns="http://www.w3.org/2000/svg">
<path fill-rule="evenodd" clip-rule="evenodd" d="M8 11.4219C8 11.4219 10.0711 11.4219 11.5355 12.8863C11.5355 12.8863 13 14.3508 13 16.4219C13 16.4219 13 18.4929 11.5355 19.9574C11.5355 19.9574 10.0711 21.4219 8 21.4219C8 21.4219 5.92893 21.4219 4.46447 19.9574C4.46447 19.9574 3 18.4929 3 16.4219C3 16.4219 3 14.3508 4.46447 12.8863C4.46447 12.8863 5.92893 11.4219 8 11.4219ZM8 13.4219C8 13.4219 6.75736 13.4219 5.87868 14.3006C5.87868 14.3006 5 15.1792 5 16.4219C5 16.4219 5 17.6645 5.87868 18.5432C5.87868 18.5432 6.75736 19.4219 8 19.4219C8 19.4219 9.24264 19.4219 10.1213 18.5432C10.1213 18.5432 11 17.6645 11 16.4219C11 16.4219 11 15.1792 10.1213 14.3006C10.1213 14.3006 9.24264 13.4219 8 13.4219Z" fill="#1C1C1C"/>
<path fill-rule="evenodd" clip-rule="evenodd" d="M22 20.4219C22 20.4219 24.0711 20.4219 25.5355 21.8863C25.5355 21.8863 27 23.3508 27 25.4219C27 25.4219 27 27.4929 25.5355 28.9574C25.5355 28.9574 24.0711 30.4219 22 30.4219C22 30.4219 19.9289 30.4219 18.4645 28.9574C18.4645 28.9574 17 27.4929 17 25.4219C17 25.4219 17 23.3508 18.4645 21.8863C18.4645 21.8863 19.9289 20.4219 22 20.4219ZM22 22.4219C22 22.4219 20.7574 22.4219 19.8787 23.3006C19.8787 23.3006 19 24.1792 19 25.4219C19 25.4219 19 26.6645 19.8787 27.5432C19.8787 27.5432 20.7574 28.4219 22 28.4219C22 28.4219 23.2426 28.4219 24.1213 27.5432C24.1213 27.5432 25 26.6645 25 25.4219C25 25.4219 25 24.1792 24.1213 23.3006C24.1213 23.3006 23.2426 22.4219 22 22.4219Z" fill="#1C1C1C"/>
<path fill-rule="evenodd" clip-rule="evenodd" d="M22 2.42188C22 2.42188 24.0711 2.42188 25.5355 3.88634C25.5355 3.88634 27 5.35081 27 7.42188C27 7.42188 27 9.49294 25.5355 10.9574C25.5355 10.9574 24.0711 12.4219 22 12.4219C22 12.4219 19.9289 12.4219 18.4645 10.9574C18.4645 10.9574 17 9.49294 17 7.42188C17 7.42188 17 5.35081 18.4645 3.88634C18.4645 3.88634 19.9289 2.42188 22 2.42188ZM22 4.42187C22 4.42187 20.7574 4.42187 19.8787 5.30055C19.8787 5.30055 19 6.17923 19 7.42188C19 7.42188 19 8.66452 19.8787 9.5432C19.8787 9.5432 20.7574 10.4219 22 10.4219C22 10.4219 23.2426 10.4219 24.1213 9.5432C24.1213 9.5432 25 8.66452 25 7.42188C25 7.42188 25 6.17923 24.1213 5.30055C24.1213 5.30055 23.2426 4.42188 22 4.42187Z" fill="#1C1C1C"/>
<path d="M19.1781 10.4257L19.1847 10.4215C19.4672 10.2368 19.6375 9.92201 19.6375 9.58447C19.6375 9.39278 19.5824 9.20513 19.4788 9.04386L19.4745 9.03726C19.3308 8.81756 19.1066 8.66314 18.8501 8.60733L18.8427 8.60575C18.7752 8.5916 18.7064 8.58447 18.6375 8.58447C18.4458 8.58447 18.2581 8.63957 18.0969 8.7432L10.8222 13.418C10.5991 13.5614 10.4417 13.7877 10.3853 14.0469C10.3702 14.1167 10.3625 14.188 10.3625 14.2595L10.3629 14.289C10.3683 14.4706 10.423 14.6473 10.5212 14.8001C10.7052 15.0864 11.0222 15.2595 11.3625 15.2595C11.3769 15.2595 11.3913 15.2592 11.4057 15.2585C11.5825 15.2509 11.7542 15.1964 11.9031 15.1007L19.1781 10.4257Z" fill="#1C1C1C"/>
<path d="M18.0964 24.1005C18.2577 24.2041 18.4458 24.2595 18.6375 24.2595L18.6454 24.2594C18.9829 24.2568 19.2963 24.084 19.4788 23.8001C19.5824 23.6388 19.6375 23.4512 19.6375 23.2595L19.6375 23.2516C19.6348 22.9141 19.4621 22.6007 19.1781 22.4182L11.9031 17.7432C11.7418 17.6396 11.5542 17.5845 11.3625 17.5845L11.3546 17.5845C11.0171 17.5872 10.7037 17.7599 10.5212 18.0439C10.4176 18.2051 10.3625 18.3928 10.3625 18.5845L10.3625 18.5923C10.3652 18.9299 10.5379 19.2433 10.8219 19.4257L18.0964 24.1005Z" fill="#1C1C1C"/>
</svg>
