<svg width="104" height="87" viewBox="0 0 104 87" fill="none" xmlns="http://www.w3.org/2000/svg">
<mask id="path-1-outside-1_223_1550" maskUnits="userSpaceOnUse" x="0.164062" y="-1" width="104" height="88" fill="black">
<rect fill="white" x="0.164062" y="-1" width="104" height="88"/>
<path fill-rule="evenodd" clip-rule="evenodd" d="M52 16.3413C51.733 16.0815 51.4661 15.8217 51.1992 15.5619C48.1121 12.5574 45.0265 9.55426 41.9339 6.565C38.607 3.35936 34.0181 3.1482 30.6529 5.98913C28.9129 7.46718 28.0143 9.42512 27.7466 11.7094C23.2915 8.6573 20.2131 8.235 17.0965 10.4041C12.9282 13.3218 12.4502 17.2569 14.3622 21.7102C14.2766 21.7274 14.2063 21.7485 14.1461 21.7665C14.0721 21.7886 14.0135 21.8062 13.9607 21.8062C10.6146 22.2861 8.24369 24.0712 7.1347 27.2577C5.94923 30.6553 6.80966 33.6498 9.35268 36.1452C9.82609 36.6082 10.3149 37.0404 10.8632 37.5251C11.1785 37.8038 11.5135 38.1 11.8766 38.4294C11.3221 38.583 11.0926 38.6406 10.8632 38.679C7.78481 39.3316 5.66244 41.1552 4.66818 44.1113C3.59743 47.2785 4.22839 50.2154 6.59933 52.5573C10.351 56.2591 15.7072 61.3123 20.879 66.1916C24.9325 70.0158 28.8727 73.7331 31.8383 76.6092C31.8749 76.6398 31.9095 76.6704 31.9435 76.7003C32.016 76.7644 32.0852 76.8256 32.1634 76.8779C32.2972 77.0123 32.4693 77.1466 32.6605 77.281C38.9477 81.2873 45.3996 82.9536 52 82.2744C58.6004 82.9536 65.0523 81.2873 71.3395 77.281C71.5307 77.1466 71.7028 77.0123 71.8366 76.8779C71.9148 76.8256 71.984 76.7644 72.0565 76.7004C72.0904 76.6704 72.1251 76.6398 72.1617 76.6092C75.1273 73.7331 79.0676 70.0157 83.1211 66.1915C88.2928 61.3123 93.649 56.2591 97.4007 52.5573C99.7716 50.2154 100.403 47.2785 99.3318 44.1113C98.3376 41.1552 96.2152 39.3316 93.1368 38.679C92.9074 38.6406 92.6779 38.583 92.1234 38.4294C92.4865 38.1 92.8215 37.8038 93.1368 37.5251C93.6851 37.0404 94.1739 36.6082 94.6473 36.1452C97.1903 33.6498 98.0508 30.6553 96.8653 27.2577C95.7563 24.0712 93.3854 22.2861 90.0393 21.8062C89.9865 21.8062 89.9279 21.7886 89.8539 21.7665C89.7937 21.7485 89.7234 21.7274 89.6377 21.7102C91.5498 17.2569 91.0718 13.3218 86.9035 10.4041C83.7869 8.235 80.7085 8.6573 76.2534 11.7094C75.9857 9.42512 75.0871 7.46718 73.3471 5.98913C69.9819 3.1482 65.393 3.35936 62.0661 6.565C58.9736 9.55418 55.888 12.5572 52.8011 15.5617C52.5341 15.8215 52.267 16.0814 52 16.3413Z"/>
</mask>
<path fill-rule="evenodd" clip-rule="evenodd" d="M52 16.3413C51.733 16.0815 51.4661 15.8217 51.1992 15.5619C48.1121 12.5574 45.0265 9.55426 41.9339 6.565C38.607 3.35936 34.0181 3.1482 30.6529 5.98913C28.9129 7.46718 28.0143 9.42512 27.7466 11.7094C23.2915 8.6573 20.2131 8.235 17.0965 10.4041C12.9282 13.3218 12.4502 17.2569 14.3622 21.7102C14.2766 21.7274 14.2063 21.7485 14.1461 21.7665C14.0721 21.7886 14.0135 21.8062 13.9607 21.8062C10.6146 22.2861 8.24369 24.0712 7.1347 27.2577C5.94923 30.6553 6.80966 33.6498 9.35268 36.1452C9.82609 36.6082 10.3149 37.0404 10.8632 37.5251C11.1785 37.8038 11.5135 38.1 11.8766 38.4294C11.3221 38.583 11.0926 38.6406 10.8632 38.679C7.78481 39.3316 5.66244 41.1552 4.66818 44.1113C3.59743 47.2785 4.22839 50.2154 6.59933 52.5573C10.351 56.2591 15.7072 61.3123 20.879 66.1916C24.9325 70.0158 28.8727 73.7331 31.8383 76.6092C31.8749 76.6398 31.9095 76.6704 31.9435 76.7003C32.016 76.7644 32.0852 76.8256 32.1634 76.8779C32.2972 77.0123 32.4693 77.1466 32.6605 77.281C38.9477 81.2873 45.3996 82.9536 52 82.2744C58.6004 82.9536 65.0523 81.2873 71.3395 77.281C71.5307 77.1466 71.7028 77.0123 71.8366 76.8779C71.9148 76.8256 71.984 76.7644 72.0565 76.7004C72.0904 76.6704 72.1251 76.6398 72.1617 76.6092C75.1273 73.7331 79.0676 70.0157 83.1211 66.1915C88.2928 61.3123 93.649 56.2591 97.4007 52.5573C99.7716 50.2154 100.403 47.2785 99.3318 44.1113C98.3376 41.1552 96.2152 39.3316 93.1368 38.679C92.9074 38.6406 92.6779 38.583 92.1234 38.4294C92.4865 38.1 92.8215 37.8038 93.1368 37.5251C93.6851 37.0404 94.1739 36.6082 94.6473 36.1452C97.1903 33.6498 98.0508 30.6553 96.8653 27.2577C95.7563 24.0712 93.3854 22.2861 90.0393 21.8062C89.9865 21.8062 89.9279 21.7886 89.8539 21.7665C89.7937 21.7485 89.7234 21.7274 89.6377 21.7102C91.5498 17.2569 91.0718 13.3218 86.9035 10.4041C83.7869 8.235 80.7085 8.6573 76.2534 11.7094C75.9857 9.42512 75.0871 7.46718 73.3471 5.98913C69.9819 3.1482 65.393 3.35936 62.0661 6.565C58.9736 9.55418 55.888 12.5572 52.8011 15.5617C52.5341 15.8215 52.267 16.0814 52 16.3413Z" fill="#F2C94C"/>
<path d="M52 16.3413L49.2102 19.2079L52 21.9229L54.7898 19.2079L52 16.3413ZM51.1992 15.5619L48.4093 18.4284L48.4093 18.4284L51.1992 15.5619ZM41.9339 6.565L44.7139 3.68894L44.7094 3.68454L41.9339 6.565ZM30.6529 5.98913L28.0726 2.93264L28.0632 2.94058L30.6529 5.98913ZM27.7466 11.7094L25.4859 15.0093L30.9487 18.7517L31.7194 12.1749L27.7466 11.7094ZM17.0965 10.4041L14.8115 7.12094L14.8027 7.12713L17.0965 10.4041ZM14.3622 21.7102L15.1496 25.6319L19.9825 24.6616L18.0378 20.1321L14.3622 21.7102ZM14.1461 21.7665L15.2936 25.5984L15.2936 25.5983L14.1461 21.7665ZM13.9607 21.8062V17.8062H13.6753L13.3929 17.8467L13.9607 21.8062ZM7.1347 27.2577L10.9114 28.5754L10.9124 28.5725L7.1347 27.2577ZM9.35268 36.1452L6.55111 39.0002L6.55563 39.0046L9.35268 36.1452ZM10.8632 37.5251L8.21386 40.5219L8.21388 40.5219L10.8632 37.5251ZM11.8766 38.4294L12.9442 42.2843L19.9417 40.3464L14.5645 35.4672L11.8766 38.4294ZM10.8632 38.679L10.2031 34.7338L10.118 34.748L10.0336 34.7659L10.8632 38.679ZM4.66818 44.1113L8.4575 45.3923L8.45947 45.3865L4.66818 44.1113ZM6.59933 52.5573L3.78842 55.4031L3.78989 55.4045L6.59933 52.5573ZM20.879 66.1916L18.134 69.1011L20.879 66.1916ZM31.8383 76.6092L29.0536 79.4806L29.1591 79.5829L29.2718 79.6772L31.8383 76.6092ZM31.9435 76.7003L29.2949 79.6978L29.295 79.698L31.9435 76.7003ZM32.1634 76.8779L34.9974 74.055L34.7177 73.7742L34.3883 73.5538L32.1634 76.8779ZM32.6605 77.281L30.3606 80.5537L30.4347 80.6057L30.511 80.6543L32.6605 77.281ZM52 82.2744L52.4094 78.2954L52 78.2533L51.5906 78.2954L52 82.2744ZM71.3395 77.281L73.489 80.6543L73.5653 80.6057L73.6393 80.5537L71.3395 77.281ZM71.8366 76.8779L69.6119 73.5537L69.2824 73.7742L69.0026 74.055L71.8366 76.8779ZM72.0565 76.7004L69.4081 73.7027L69.4079 73.7028L72.0565 76.7004ZM72.1617 76.6092L74.7284 79.677L74.841 79.5828L74.9464 79.4806L72.1617 76.6092ZM83.1211 66.1915L80.3761 63.282V63.282L83.1211 66.1915ZM97.4007 52.5573L100.21 55.4045L100.212 55.4031L97.4007 52.5573ZM99.3318 44.1113L95.5405 45.3865L95.5425 45.3923L99.3318 44.1113ZM93.1368 38.679L93.9664 34.7659L93.882 34.748L93.7969 34.7338L93.1368 38.679ZM92.1234 38.4294L89.4355 35.4672L84.0583 40.3464L91.0558 42.2843L92.1234 38.4294ZM93.1368 37.5251L90.4875 34.5282L93.1368 37.5251ZM94.6473 36.1452L97.4444 39.0046L97.4489 39.0002L94.6473 36.1452ZM96.8653 27.2577L93.0875 28.5725L93.0886 28.5754L96.8653 27.2577ZM90.0393 21.8062L90.6071 17.8467L90.3247 17.8062H90.0393V21.8062ZM89.8539 21.7665L88.7064 25.5983L88.7064 25.5983L89.8539 21.7665ZM89.6377 21.7102L85.9622 20.1321L84.0174 24.6617L88.8504 25.632L89.6377 21.7102ZM86.9035 10.4041L89.1973 7.12712L89.1885 7.12095L86.9035 10.4041ZM76.2534 11.7094L72.2806 12.1749L73.0513 18.7517L78.5141 15.0093L76.2534 11.7094ZM73.3471 5.98913L75.9368 2.94056L75.9274 2.93265L73.3471 5.98913ZM62.0661 6.565L59.2906 3.68453L59.2861 3.68895L62.0661 6.565ZM52.8011 15.5617L55.5909 18.4281L55.5909 18.4281L52.8011 15.5617ZM54.7898 13.4748C54.5229 13.215 54.256 12.9552 53.989 12.6954L48.4093 18.4284C48.6762 18.6882 48.9432 18.948 49.2102 19.2079L54.7898 13.4748ZM53.989 12.6954C50.9028 9.6917 47.8122 6.68378 44.7139 3.68895L39.154 9.44105C42.2407 12.4247 45.3215 15.4231 48.4093 18.4284L53.989 12.6954ZM44.7094 3.68454C39.9932 -0.859617 33.0951 -1.30742 28.0726 2.93265L33.2332 9.04561C34.941 7.60382 37.2207 7.57833 39.1585 9.44546L44.7094 3.68454ZM28.0632 2.94058C25.4198 5.18605 24.1373 8.14137 23.7738 11.2438L31.7194 12.1749C31.8912 10.7089 32.406 9.74831 33.2425 9.03768L28.0632 2.94058ZM30.0073 8.40948C27.5648 6.73622 25.0571 5.46207 22.419 5.1301C19.5826 4.77316 17.0581 5.55742 14.8115 7.12095L19.3814 13.6872C20.2515 13.0817 20.8245 12.9925 21.4202 13.0675C22.2143 13.1674 23.4733 13.6305 25.4859 15.0093L30.0073 8.40948ZM14.8027 7.12713C12.0448 9.05762 10.1827 11.5841 9.53523 14.6564C8.90809 17.632 9.53129 20.5972 10.6867 23.2883L18.0378 20.1321C17.2812 18.3698 17.1873 17.1409 17.3633 16.3062C17.5188 15.5681 17.9799 14.6683 19.3903 13.681L14.8027 7.12713ZM13.5749 17.7885C13.2884 17.846 13.0596 17.9163 12.9987 17.9346L15.2936 25.5983C15.3529 25.5806 15.2647 25.6088 15.1496 25.6319L13.5749 17.7885ZM12.9987 17.9346C12.9305 17.955 13.021 17.9264 13.1315 17.9004C13.2536 17.8718 13.5583 17.8062 13.9607 17.8062V25.8062C14.4159 25.8062 14.7762 25.7318 14.9594 25.6888C15.1309 25.6486 15.2877 25.6001 15.2936 25.5984L12.9987 17.9346ZM13.3929 17.8467C8.70812 18.5186 5.00275 21.2141 3.35696 25.9429L10.9124 28.5725C11.4846 26.9284 12.5212 26.0536 14.5286 25.7657L13.3929 17.8467ZM3.35799 25.9399C2.53645 28.2945 2.36712 30.703 2.97335 33.0429C3.57439 35.3628 4.86771 37.3483 6.55111 39.0002L12.1543 33.2901C11.2946 32.4466 10.8862 31.6872 10.7177 31.0365C10.5543 30.406 10.5475 29.6185 10.9114 28.5754L3.35799 25.9399ZM6.55563 39.0046C7.11364 39.5504 7.67962 40.0496 8.21386 40.5219L13.5125 34.5282C12.9502 34.0311 12.5386 33.666 12.1497 33.2857L6.55563 39.0046ZM8.21388 40.5219C8.53081 40.8021 8.84743 41.0821 9.18865 41.3917L14.5645 35.4672C14.1796 35.1179 13.8262 34.8056 13.5125 34.5282L8.21388 40.5219ZM10.809 34.5745C10.5348 34.6505 10.3852 34.6903 10.2884 34.7142C10.2448 34.725 10.2224 34.7299 10.2133 34.7318C10.2061 34.7333 10.2044 34.7336 10.2031 34.7338L11.5233 42.6241C11.9882 42.5463 12.4095 42.4324 12.9442 42.2843L10.809 34.5745ZM10.0336 34.7659C5.63323 35.6989 2.34223 38.4794 0.87688 42.8361L8.45947 45.3865C8.98265 43.831 9.93639 42.9644 11.6928 42.592L10.0336 34.7659ZM0.87886 42.8302C-0.65878 47.3785 0.278368 51.9361 3.78842 55.4031L9.41024 49.7114C8.17842 48.4947 7.85364 47.1785 8.45749 45.3923L0.87886 42.8302ZM3.78989 55.4045C7.5809 59.1452 12.9752 64.234 18.134 69.1011L23.6239 63.282C18.4392 58.3906 13.1212 53.373 9.40878 49.71L3.78989 55.4045ZM18.134 69.1011C22.1949 72.9322 26.1122 76.628 29.0536 79.4806L34.6231 73.7377C31.6332 70.8381 27.67 67.0993 23.6239 63.282L18.134 69.1011ZM29.2718 79.6772C29.2637 79.6704 29.2603 79.6674 29.2643 79.6709C29.2663 79.6726 29.2695 79.6754 29.2747 79.68C29.2801 79.6848 29.286 79.69 29.2949 79.6978L34.5921 73.7029C34.5635 73.6776 34.4894 73.6118 34.4049 73.5412L29.2718 79.6772ZM29.295 79.698C29.3338 79.7322 29.6005 79.9758 29.9385 80.202L34.3883 73.5538C34.4932 73.624 34.5666 73.6831 34.5981 73.709C34.6139 73.7221 34.623 73.73 34.6211 73.7284C34.6177 73.7255 34.6122 73.7207 34.5919 73.7027L29.295 79.698ZM29.3294 79.7008C29.7043 80.0771 30.0945 80.3667 30.3606 80.5537L34.9604 74.0083C34.9379 73.9925 34.9214 73.9805 34.9099 73.9719C34.8983 73.9633 34.8938 73.9596 34.8951 73.9607C34.8963 73.9616 34.9059 73.9694 34.9221 73.9837C34.9382 73.9979 34.9642 74.0217 34.9974 74.055L29.3294 79.7008ZM30.511 80.6543C37.459 85.0818 44.8015 87.0362 52.4094 86.2534L51.5906 78.2954C45.9977 78.8709 40.4364 77.4928 34.8101 73.9077L30.511 80.6543ZM69.1899 73.9077C63.5636 77.4928 58.0023 78.8709 52.4094 78.2954L51.5906 86.2534C59.1985 87.0362 66.541 85.0818 73.489 80.6543L69.1899 73.9077ZM69.0026 74.055C69.0358 74.0217 69.0618 73.9979 69.0779 73.9837C69.0941 73.9694 69.1037 73.9616 69.1049 73.9607C69.1062 73.9596 69.1017 73.9633 69.0901 73.9719C69.0786 73.9805 69.0621 73.9925 69.0396 74.0083L73.6393 80.5537C73.9055 80.3667 74.2957 80.0771 74.6706 79.7008L69.0026 74.055ZM69.4079 73.7028C69.3876 73.7208 69.3822 73.7256 69.3789 73.7285C69.377 73.7301 69.386 73.7222 69.4019 73.709C69.4334 73.683 69.507 73.6239 69.6119 73.5537L74.0613 80.2022C74.3994 79.9759 74.6662 79.7322 74.7051 79.6979L69.4079 73.7028ZM69.5949 73.5413C69.5105 73.6119 69.4365 73.6776 69.4081 73.7027L74.705 79.698C74.7139 79.6901 74.7198 79.6849 74.7253 79.68C74.7305 79.6754 74.7337 79.6727 74.7357 79.6709C74.7398 79.6674 74.7364 79.6703 74.7284 79.677L69.5949 73.5413ZM80.3761 63.282C76.33 67.0992 72.3668 70.8381 69.3769 73.7377L74.9464 79.4806C77.8878 76.628 81.8051 72.9322 85.866 69.101L80.3761 63.282ZM94.5912 49.71C90.8789 53.373 85.5609 58.3905 80.3761 63.282L85.866 69.101C91.0248 64.234 96.4191 59.1452 100.21 55.4045L94.5912 49.71ZM95.5425 45.3923C96.1464 47.1785 95.8216 48.4947 94.5898 49.7114L100.212 55.4031C103.722 51.9361 104.659 47.3785 103.121 42.8302L95.5425 45.3923ZM92.3072 42.592C94.0636 42.9644 95.0173 43.831 95.5405 45.3865L103.123 42.8361C101.658 38.4794 98.3668 35.6989 93.9664 34.7659L92.3072 42.592ZM91.0558 42.2843C91.5905 42.4324 92.0118 42.5463 92.4767 42.6241L93.7969 34.7338C93.7956 34.7336 93.7939 34.7333 93.7867 34.7318C93.7776 34.7299 93.7552 34.725 93.7116 34.7142C93.6148 34.6903 93.4652 34.6505 93.191 34.5745L91.0558 42.2843ZM90.4875 34.5282C90.1738 34.8056 89.8204 35.1179 89.4355 35.4672L94.8114 41.3917C95.1526 41.0821 95.4692 40.8021 95.7861 40.5219L90.4875 34.5282ZM91.8503 33.2857C91.4614 33.666 91.0498 34.0311 90.4875 34.5282L95.7861 40.5219C96.3204 40.0496 96.8864 39.5505 97.4444 39.0046L91.8503 33.2857ZM93.0886 28.5754C93.4525 29.6185 93.4457 30.406 93.2823 31.0365C93.1138 31.6872 92.7054 32.4466 91.8457 33.2901L97.4489 39.0002C99.1323 37.3483 100.426 35.3628 101.027 33.0429C101.633 30.703 101.464 28.2945 100.642 25.9399L93.0886 28.5754ZM89.4714 25.7657C91.4788 26.0536 92.5154 26.9284 93.0875 28.5725L100.643 25.9429C98.9973 21.2141 95.2919 18.5186 90.6071 17.8467L89.4714 25.7657ZM88.7064 25.5983C88.7123 25.6001 88.8691 25.6486 89.0406 25.6888C89.2238 25.7318 89.5841 25.8062 90.0393 25.8062V17.8062C90.4417 17.8062 90.7463 17.8718 90.8685 17.9004C90.979 17.9264 91.0695 17.955 91.0013 17.9346L88.7064 25.5983ZM88.8504 25.632C88.7353 25.6088 88.6471 25.5806 88.7064 25.5983L91.0014 17.9346C90.9404 17.9163 90.7116 17.846 90.4251 17.7884L88.8504 25.632ZM84.6097 13.681C86.0201 14.6683 86.4812 15.5681 86.6367 16.3062C86.8127 17.1409 86.7188 18.3698 85.9622 20.1321L93.3133 23.2883C94.4687 20.5972 95.0919 17.632 94.4648 14.6564C93.8173 11.5841 91.9552 9.05762 89.1973 7.12713L84.6097 13.681ZM78.5141 15.0093C80.5267 13.6305 81.7857 13.1674 82.5798 13.0675C83.1755 12.9925 83.7485 13.0817 84.6186 13.6872L89.1885 7.12095C86.9419 5.55742 84.4174 4.77316 81.581 5.1301C78.9429 5.46207 76.4352 6.73622 73.9927 8.40948L78.5141 15.0093ZM70.7575 9.03768C71.594 9.74831 72.1088 10.7089 72.2806 12.1749L80.2262 11.2438C79.8627 8.14137 78.5802 5.18605 75.9368 2.94057L70.7575 9.03768ZM64.8415 9.44546C66.7793 7.57833 69.059 7.60383 70.7668 9.0456L75.9274 2.93265C70.9049 -1.30742 64.0068 -0.859614 59.2906 3.68454L64.8415 9.44546ZM55.5909 18.4281C58.6787 15.4229 61.7593 12.4247 64.846 9.44105L59.2861 3.68895C56.1878 6.6837 53.0974 9.69155 50.0112 12.6952L55.5909 18.4281ZM54.7898 19.2079C55.0569 18.9479 55.3239 18.688 55.5909 18.4281L50.0112 12.6952C49.7442 12.9551 49.4772 13.2149 49.2102 13.4747L54.7898 19.2079Z" fill="white" mask="url(#path-1-outside-1_223_1550)"/>
</svg>
