<svg width="299" height="181" viewBox="0 0 299 181" fill="none" xmlns="http://www.w3.org/2000/svg">
	<path
		d="M171.289 88.99C171.219 84.85 171.159 80.7 171.079 76.56C170.979 70.81 170.889 65.06 170.779 59.31C170.779 59.29 170.779 59.26 170.779 59.24C170.739 54.19 170.499 40.32 170.389 38.73C169.759 28.97 162.329 20.9 152.969 19.77C142.849 18.54 133.449 24.15 130.789 33.85C129.609 38.14 130.029 42.87 129.759 47.4C129.699 48.32 129.779 49.25 129.799 50.18C126.649 47.91 124.199 45.47 121.709 43.07C110.409 32.13 99.129 21.16 87.789 10.26C80.489 3.24001 70.349 2.77001 62.969 9.01001C59.129 12.26 57.159 16.52 56.569 21.53C46.769 14.84 39.989 13.9 33.129 18.67C23.939 25.05 22.909 33.67 27.119 43.43C26.709 43.53 26.469 43.62 26.219 43.65C18.869 44.7 13.659 48.62 11.199 55.62C8.58903 63.05 10.499 69.61 16.089 75.09C17.709 76.68 19.479 78.13 21.659 80.08C20.419 80.4 19.939 80.54 19.449 80.65C12.669 82.06 7.99903 86.06 5.79903 92.56C3.44903 99.48 4.82903 105.94 10.029 111.06C24.739 125.53 50.719 149.42 65.539 163.78C65.769 164.01 66.009 164.2 66.249 164.37C66.559 164.67 66.909 164.96 67.349 165.24C88.429 178.64 110.329 180.1 132.999 169.6C142.979 164.98 150.529 157.33 157.779 149.37C166.859 139.4 171.639 127.66 171.629 114.11C171.629 105.74 171.379 97.37 171.239 88.99H171.279H171.289Z"
		fill="#F4CC00" stroke="black" stroke-width="8" stroke-miterlimit="10" />
	<path
		d="M128.46 88.99C128.32 97.36 128.08 105.73 128.07 114.11C128.06 127.65 132.83 139.39 141.92 149.37C149.17 157.33 156.73 164.98 166.7 169.6C189.37 180.1 211.27 178.64 232.35 165.24C232.79 164.96 233.14 164.67 233.45 164.37C233.69 164.2 233.93 164 234.16 163.78C248.99 149.42 274.96 125.54 289.67 111.06C294.88 105.94 296.25 99.48 293.9 92.56C291.7 86.06 287.03 82.06 280.25 80.65C279.76 80.55 279.28 80.4 278.04 80.08C280.23 78.13 281.99 76.68 283.61 75.09C289.2 69.61 291.1 63.05 288.5 55.62C286.05 48.62 280.84 44.7 273.48 43.65C273.23 43.61 272.99 43.53 272.58 43.43C276.79 33.67 275.76 25.05 266.57 18.67C259.71 13.9 252.93 14.84 243.13 21.53C242.54 16.52 240.57 12.25 236.73 9.01001C229.34 2.77001 219.21 3.24001 211.91 10.26C200.57 21.16 189.29 32.12 177.99 43.07C175.51 45.48 173.05 47.91 169.9 50.18C169.92 49.25 169.99 48.33 169.94 47.4C169.66 42.87 170.08 38.14 168.91 33.85C166.25 24.16 156.86 18.54 146.73 19.77C137.38 20.91 129.95 28.97 129.31 38.73C129.21 40.32 128.97 54.19 128.92 59.24C128.92 59.26 128.92 59.29 128.92 59.31C128.8 65.06 128.71 70.81 128.62 76.56C128.55 80.7 128.48 84.85 128.41 88.99H128.45H128.46Z"
		fill="#F4CC00" stroke="black" stroke-width="8" stroke-miterlimit="10" />
</svg>